<?xml version="1.0" encoding="UTF-8"?>
<!DOCTYPE svg PUBLIC "-//W3C//DTD SVG 1.1//EN" "http://www.w3.org/Graphics/SVG/1.1/DTD/svg11.dtd">
<!-- Creator: CorelDRAW X7 -->
<svg xmlns="http://www.w3.org/2000/svg" xml:space="preserve" width="1276px" height="1276px" version="1.1" style="shape-rendering:geometricPrecision; text-rendering:geometricPrecision; image-rendering:optimizeQuality; fill-rule:evenodd; clip-rule:evenodd"
viewBox="0 0 1260 1260"
 xmlns:xlink="http://www.w3.org/1999/xlink">
 <defs>
  <style type="text/css">
   <![CDATA[
    .fil0 {fill:#FEFEFE}
    .fil3 {fill:#373435}
    .fil1 {fill:#00AFEF}
    .fil2 {fill:#FEFEFE}
   ]]>
  </style>
 </defs>
 <g id="Layer_x0020_1">
  <metadata id="CorelCorpID_0Corel-Layer"/>
  <circle class="fil0" cx="630" cy="630" r="630"/>
  <g id="_246661160">
   <path class="fil1" d="M540 1127l179 0c5,-3 38,-9 47,-13 16,-5 30,-10 44,-15 84,-36 144,-89 199,-157 70,-85 127,-240 120,-355 -37,54 -82,99 -162,119 -42,10 -84,10 -126,-1 -40,-10 -63,-25 -94,-45 -8,6 -106,155 -117,166 -6,-6 -11,-15 -15,-21l-73 -104c-6,-9 -24,-37 -30,-41 -30,19 -52,34 -93,45 -41,10 -84,11 -125,1 -114,-28 -152,-109 -163,-116 -4,140 58,273 121,354 52,67 119,122 199,155 13,6 28,11 44,16 9,3 39,9 45,12z"/>
   <path class="fil2" d="M337 222c-120,12 -216,114 -207,249 8,119 109,227 241,215 120,-11 217,-115 208,-250 -8,-119 -112,-227 -242,-214z"/>
   <path class="fil3" d="M306 288c16,14 37,21 46,61 19,84 -82,136 -140,85 -16,-14 -16,-21 -23,-30 -30,87 24,168 74,197 76,45 160,28 213,-23 77,-75 74,-221 -48,-281 -32,-16 -99,-24 -122,-9z"/>
   <path class="fil1" d="M268 209c34,-6 35,-14 84,-14 30,-1 58,4 84,13 142,48 214,205 160,341 -5,11 -13,24 -16,33 16,-1 29,-6 48,-6 20,0 33,4 51,6 -6,-19 -14,-24 -23,-58 -54,-203 129,-364 304,-324 11,3 22,7 32,9 -7,-13 -63,-67 -75,-74 -21,-11 -104,12 -125,19 -63,23 -108,63 -147,113 -5,7 -9,15 -15,22 -11,-11 -28,-47 -68,-79 -40,-32 -93,-63 -150,-71 -15,-3 -55,-10 -68,-4 -6,3 -71,62 -76,74z"/>
   <path class="fil2" d="M884 223c-119,13 -214,116 -203,253 10,118 115,224 245,210 121,-13 215,-119 203,-254 -9,-117 -114,-224 -245,-209z"/>
   <path class="fil3" d="M857 288c18,16 37,21 46,61 13,54 -33,115 -101,103 -20,-3 -39,-16 -50,-30 -5,-6 -7,-12 -12,-16 -17,27 -4,94 8,120 53,114 199,133 280,50 49,-50 72,-134 26,-211 -17,-29 -42,-52 -75,-68 -32,-15 -96,-26 -122,-9z"/>
  </g>
 </g>
</svg>
